<?xml version="1.0" standalone="no"?><!DOCTYPE svg PUBLIC "-//W3C//DTD SVG 1.1//EN" "http://www.w3.org/Graphics/SVG/1.1/DTD/svg11.dtd"><svg t="1647249672130" class="icon" viewBox="0 0 1024 1024" version="1.1" xmlns="http://www.w3.org/2000/svg" p-id="2816" xmlns:xlink="http://www.w3.org/1999/xlink" width="200" height="200"><defs><style type="text/css"></style></defs><path d="M682.666667 938.666667a298.666667 298.666667 0 0 1-298.666667-298.666667c0-103.466667 88.149333-273.322667 264.490667-509.44a42.666667 42.666667 0 0 1 68.352 0C893.184 366.634667 981.333333 536.490667 981.333333 640a298.666667 298.666667 0 0 1-298.666666 298.666667z m0-85.333334c117.802667 0 213.333333-96.768 213.333333-216.149333 0-74.922667-62.976-197.845333-188.928-368.768a30.208 30.208 0 0 0-48.810667 0C532.309333 439.338667 469.333333 562.261333 469.333333 637.184 469.333333 756.565333 564.864 853.333333 682.666667 853.333333z m-257.962667 35.669334A240.64 240.64 0 0 1 277.333333 938.666667C147.712 938.666667 42.666667 838.4 42.666667 714.666667 42.666667 638.336 109.653333 513.92 243.626667 341.333333a42.666667 42.666667 0 0 1 67.413333 0c32.170667 41.386667 60.458667 80.085333 84.906667 115.968a950.357333 950.357333 0 0 0-38.698667 108.8 3531.861333 3531.861333 0 0 0-61.952-100.138666 21.333333 21.333333 0 0 0-35.968 0C171.818667 603.050667 128 685.952 128 714.666667 128 790.357333 194.005333 853.333333 277.333333 853.333333c38.698667 0 73.642667-13.568 99.968-35.669333a344.192 344.192 0 0 0 47.402667 71.338667z" p-id="2817"></path></svg>