<?xml version="1.0" standalone="no"?><!DOCTYPE svg PUBLIC "-//W3C//DTD SVG 1.1//EN" "http://www.w3.org/Graphics/SVG/1.1/DTD/svg11.dtd"><svg t="1647432445348" class="icon" viewBox="0 0 1024 1024" version="1.1" xmlns="http://www.w3.org/2000/svg" p-id="6413" xmlns:xlink="http://www.w3.org/1999/xlink" width="200" height="200"><defs><style type="text/css"></style></defs><path d="M294.912 246.443L188.075 139.947l-48.128 48.128L246.443 294.57l48.469-48.128z m251.221-212.31h-68.266v136.534h68.266V34.133zM139.947 835.925l48.128 48.128L294.57 777.557l-48.128-48.128-106.496 106.496z m30.72-358.058H34.133v68.266h136.534v-68.266z m813.397 221.525a237.227 237.227 0 0 0-96.597-144.384V170.667c0-75.435-61.099-136.534-136.534-136.534S614.4 95.232 614.4 170.667v384.341c-25.941 18.09-47.787 40.619-64.853 67.584-34.475 53.93-45.739 117.76-31.744 180.224s50.858 115.37 104.789 149.845c38.912 24.918 82.944 37.547 128 37.547 17.408 0 34.816-2.048 52.224-5.803 62.464-13.653 115.37-50.858 149.845-104.789 34.134-53.93 45.398-118.101 31.403-180.224z m-89.43 143.36a167.765 167.765 0 0 1-107.178 74.752c-44.373 9.899-90.112 1.707-128.683-22.87a169.028 169.028 0 0 1-74.752-107.178c-9.898-44.373-1.706-90.112 22.87-128.683 14.677-23.21 34.474-41.984 58.368-55.978l17.066-9.899v-422.23c0-37.546 30.72-68.266 68.267-68.266s68.267 30.72 68.267 68.267v422.912l23.552 13.312c38.57 24.576 64.853 62.464 74.752 107.178 10.24 44.374 2.048 90.112-22.528 128.683zM785.068 654.677V341.333H716.8v313.344a102.263 102.263 0 0 0 34.133 198.656c56.662 0 102.4-45.738 102.4-102.4 0-44.373-28.672-81.92-68.266-96.256zM273.067 512c0-131.755 107.178-238.933 238.933-238.933 11.605 0 22.87 1.365 34.133 2.73v-68.949C534.87 205.824 523.264 204.8 512 204.8c-169.301 0-307.2 137.899-307.2 307.2 0 145.75 102.4 267.947 238.933 299.35v-70.657C345.088 711.34 273.067 619.861 273.067 512z" p-id="6414"></path></svg>