<?xml version="1.0" encoding="utf-8"?>
<svg t="1647248975686" class="icon" viewBox="0 0 1024 1024" version="1.1" p-id="7479" width="200" height="200" xmlns="http://www.w3.org/2000/svg">
  <defs/>
  <path d="M 512 543.936 C 445.568 543.936 386.656 576.256 348.992 626.224 L 402.544 681.04 C 425.984 644.656 466.224 620.608 512 620.608 C 557.76 620.608 598 644.656 621.44 681.04 L 675.008 626.224 C 637.344 576.256 578.432 543.936 512 543.936 Z M 512 377.856 C 400.8 377.856 301.168 428.384 233.664 508.176 L 284.928 560.64 C 337.6 495.808 416.96 454.528 505.776 454.528 C 597.776 454.528 679.6 498.864 732.144 567.76 L 790.352 508.192 C 722.816 428.384 623.216 377.856 512 377.856 Z M 512 697.232 C 480.976 697.232 455.824 722.96 455.824 754.72 C 455.824 786.48 480.96 812.224 512 812.224 C 543.008 812.224 568.16 786.48 568.16 754.72 C 568.16 722.96 543.024 697.232 512 697.232 Z" fill="" p-id="7480"/>
</svg>