<?xml version="1.0" standalone="no"?><!DOCTYPE svg PUBLIC "-//W3C//DTD SVG 1.1//EN" "http://www.w3.org/Graphics/SVG/1.1/DTD/svg11.dtd"><svg t="1647248975686" class="icon" viewBox="0 0 1024 1024" version="1.1" xmlns="http://www.w3.org/2000/svg" p-id="7479" xmlns:xlink="http://www.w3.org/1999/xlink" width="200" height="200"><defs><style type="text/css"></style></defs><path d="M512 543.936c-66.432 0-125.344 32.32-163.008 82.288l53.552 54.816c23.44-36.384 63.68-60.432 109.456-60.432 45.76 0 86 24.048 109.44 60.432l53.568-54.816c-37.664-49.968-96.576-82.288-163.008-82.288z m0-332.16c-156.016 0-296.272 68.944-393.344 178.672l53.088 54.32c83.424-95.904 204.912-156.352 340.256-156.352s256.816 60.448 340.256 156.352l53.088-54.32C808.288 280.72 668.032 211.776 512 211.776z m0 166.08c-111.2 0-210.832 50.528-278.336 130.32l51.264 52.464c52.672-64.832 132.032-106.112 220.848-106.112 92 0 173.824 44.336 226.368 113.232l58.208-59.568C722.816 428.384 623.216 377.856 512 377.856z m0 319.376c-31.024 0-56.176 25.728-56.176 57.488S480.96 812.224 512 812.224c31.008 0 56.16-25.744 56.16-57.504s-25.136-57.488-56.16-57.488z" fill="" p-id="7480"></path></svg>